<svg id="visual" viewBox="0 0 900 300" width="900" height="300" xmlns="http://www.w3.org/2000/svg" xmlns:xlink="http://www.w3.org/1999/xlink" version="1.1"><rect x="0" y="0" width="900" height="300" fill="#000"></rect><path d="M0 92L21.5 91.5C43 91 86 90 128.8 93.7C171.7 97.3 214.3 105.7 257.2 103.3C300 101 343 88 385.8 82.3C428.7 76.7 471.3 78.3 514.2 80.8C557 83.3 600 86.7 642.8 92.8C685.7 99 728.3 108 771.2 107.3C814 106.7 857 96.3 878.5 91.2L900 86L900 0L878.5 0C857 0 814 0 771.2 0C728.3 0 685.7 0 642.8 0C600 0 557 0 514.2 0C471.3 0 428.7 0 385.8 0C343 0 300 0 257.2 0C214.3 0 171.7 0 128.8 0C86 0 43 0 21.5 0L0 0Z" fill="#673dc9"></path><path d="M0 89L21.5 88.2C43 87.3 86 85.7 128.8 83.5C171.7 81.3 214.3 78.7 257.2 81.3C300 84 343 92 385.8 89.7C428.7 87.3 471.3 74.7 514.2 73.2C557 71.7 600 81.3 642.8 83.2C685.7 85 728.3 79 771.2 76.8C814 74.7 857 76.3 878.5 77.2L900 78L900 0L878.5 0C857 0 814 0 771.2 0C728.3 0 685.7 0 642.8 0C600 0 557 0 514.2 0C471.3 0 428.7 0 385.8 0C343 0 300 0 257.2 0C214.3 0 171.7 0 128.8 0C86 0 43 0 21.5 0L0 0Z" fill="#ad1fa1"></path><path d="M0 51L21.5 49.7C43 48.3 86 45.7 128.8 46.3C171.7 47 214.3 51 257.2 51C300 51 343 47 385.8 51.2C428.7 55.3 471.3 67.7 514.2 68.3C557 69 600 58 642.8 54.3C685.7 50.7 728.3 54.3 771.2 59.7C814 65 857 72 878.5 75.5L900 79L900 0L878.5 0C857 0 814 0 771.2 0C728.3 0 685.7 0 642.8 0C600 0 557 0 514.2 0C471.3 0 428.7 0 385.8 0C343 0 300 0 257.2 0C214.3 0 171.7 0 128.8 0C86 0 43 0 21.5 0L0 0Z" fill="#cb1978"></path><path d="M0 38L21.5 36.7C43 35.3 86 32.7 128.8 35.8C171.7 39 214.3 48 257.2 50.2C300 52.3 343 47.7 385.8 44.3C428.7 41 471.3 39 514.2 38.7C557 38.3 600 39.7 642.8 42C685.7 44.3 728.3 47.7 771.2 48.7C814 49.7 857 48.3 878.5 47.7L900 47L900 0L878.5 0C857 0 814 0 771.2 0C728.3 0 685.7 0 642.8 0C600 0 557 0 514.2 0C471.3 0 428.7 0 385.8 0C343 0 300 0 257.2 0C214.3 0 171.7 0 128.8 0C86 0 43 0 21.5 0L0 0Z" fill="#d23a55"></path><path d="M0 33L21.5 29.5C43 26 86 19 128.8 16.3C171.7 13.7 214.3 15.3 257.2 19.3C300 23.3 343 29.7 385.8 32.7C428.7 35.7 471.3 35.3 514.2 34.5C557 33.7 600 32.3 642.8 28.8C685.7 25.3 728.3 19.7 771.2 18.7C814 17.7 857 21.3 878.5 23.2L900 25L900 0L878.5 0C857 0 814 0 771.2 0C728.3 0 685.7 0 642.8 0C600 0 557 0 514.2 0C471.3 0 428.7 0 385.8 0C343 0 300 0 257.2 0C214.3 0 171.7 0 128.8 0C86 0 43 0 21.5 0L0 0Z" fill="#c95a3c"></path></svg>