<svg id="visual" viewBox="0 0 900 300" width="900" height="300" xmlns="http://www.w3.org/2000/svg" xmlns:xlink="http://www.w3.org/1999/xlink" version="1.1"><rect x="0" y="0" width="900" height="300" fill="#f2f2f2"></rect><path d="M0 198L21.5 194.3C43 190.7 86 183.3 128.8 185.3C171.7 187.3 214.3 198.7 257.2 206.7C300 214.7 343 219.3 385.8 221.3C428.7 223.3 471.3 222.7 514.2 218.5C557 214.3 600 206.7 642.8 204.5C685.7 202.3 728.3 205.7 771.2 202.2C814 198.7 857 188.3 878.5 183.2L900 178L900 301L878.5 301C857 301 814 301 771.2 301C728.3 301 685.7 301 642.8 301C600 301 557 301 514.2 301C471.3 301 428.7 301 385.8 301C343 301 300 301 257.2 301C214.3 301 171.7 301 128.8 301C86 301 43 301 21.5 301L0 301Z" fill="#643bc3"></path><path d="M0 231L21.5 225.3C43 219.7 86 208.3 128.8 207.3C171.7 206.3 214.3 215.7 257.2 216.7C300 217.7 343 210.3 385.8 209.7C428.7 209 471.3 215 514.2 220.3C557 225.7 600 230.3 642.8 226.7C685.7 223 728.3 211 771.2 210.2C814 209.3 857 219.7 878.5 224.8L900 230L900 301L878.5 301C857 301 814 301 771.2 301C728.3 301 685.7 301 642.8 301C600 301 557 301 514.2 301C471.3 301 428.7 301 385.8 301C343 301 300 301 257.2 301C214.3 301 171.7 301 128.8 301C86 301 43 301 21.5 301L0 301Z" fill="#a91e9e"></path><path d="M0 225L21.5 230C43 235 86 245 128.8 246.5C171.7 248 214.3 241 257.2 239.3C300 237.7 343 241.3 385.8 239.5C428.7 237.7 471.3 230.3 514.2 231.5C557 232.7 600 242.3 642.8 245C685.7 247.7 728.3 243.3 771.2 239.8C814 236.3 857 233.7 878.5 232.3L900 231L900 301L878.5 301C857 301 814 301 771.2 301C728.3 301 685.7 301 642.8 301C600 301 557 301 514.2 301C471.3 301 428.7 301 385.8 301C343 301 300 301 257.2 301C214.3 301 171.7 301 128.8 301C86 301 43 301 21.5 301L0 301Z" fill="#c81976"></path><path d="M0 250L21.5 249C43 248 86 246 128.8 245.7C171.7 245.3 214.3 246.7 257.2 250.3C300 254 343 260 385.8 260.8C428.7 261.7 471.3 257.3 514.2 255.5C557 253.7 600 254.3 642.8 255.2C685.7 256 728.3 257 771.2 258.2C814 259.3 857 260.7 878.5 261.3L900 262L900 301L878.5 301C857 301 814 301 771.2 301C728.3 301 685.7 301 642.8 301C600 301 557 301 514.2 301C471.3 301 428.7 301 385.8 301C343 301 300 301 257.2 301C214.3 301 171.7 301 128.8 301C86 301 43 301 21.5 301L0 301Z" fill="#d03954"></path><path d="M0 267L21.5 268.8C43 270.7 86 274.3 128.8 275.7C171.7 277 214.3 276 257.2 275.5C300 275 343 275 385.8 274.3C428.7 273.7 471.3 272.3 514.2 271.2C557 270 600 269 642.8 270C685.7 271 728.3 274 771.2 276.2C814 278.3 857 279.7 878.5 280.3L900 281L900 301L878.5 301C857 301 814 301 771.2 301C728.3 301 685.7 301 642.8 301C600 301 557 301 514.2 301C471.3 301 428.7 301 385.8 301C343 301 300 301 257.2 301C214.3 301 171.7 301 128.8 301C86 301 43 301 21.5 301L0 301Z" fill="#c95a3c"></path></svg>